<?xml version="1.0" encoding="utf-8"?>
<!-- Generator: Adobe Illustrator 18.0.0, SVG Export Plug-In . SVG Version: 6.00 Build 0)  -->
<!DOCTYPE svg PUBLIC "-//W3C//DTD SVG 1.1//EN" "http://www.w3.org/Graphics/SVG/1.1/DTD/svg11.dtd">
<svg version="1.1" id="Layer_1" xmlns="http://www.w3.org/2000/svg" xmlns:xlink="http://www.w3.org/1999/xlink" x="0px" y="0px"
	 viewBox="0 0 93.5 48.2" enable-background="new 0 0 93.5 48.2" xml:space="preserve">
<g>
	<path d="M13.1,29.6c0,2.8,2.5,2.2,2.5,2.7v0.1H5.8v-0.1c0-0.4,2.6,0.3,2.6-2.8V10.7c0-2.8-2.6-2.1-2.6-2.4V8.2L13,7.4l0.1,0.1V29.6
		z"/>
	<path d="M24,29.6c0,2.8,2.5,2.2,2.5,2.6v0.1h-9.8v-0.1c0-0.4,2.7,0.3,2.7-2.8v-9.1c0-2.8-2.6-2-2.6-2.4v-0.1L24,17l0.1,0.1V29.6z
		 M24.2,11.3c0,1.5-1.1,2.8-2.7,2.8c-1.5,0-2.6-1.3-2.6-2.8c0-1.4,1.1-2.7,2.6-2.7C23.1,8.7,24.2,9.9,24.2,11.3z"/>
	<path d="M31.9,24.5c0,5.2,1.8,7.2,5.2,7.2c1.7,0,3.6-0.7,5-1.9l0.2,0.2c-1.5,1.6-3.6,2.8-6.8,2.8c-5.6,0-8.5-3.4-8.5-7.8
		c0-4.1,2.7-7.4,7.1-7.9v0.2C32.1,18.3,31.9,22.1,31.9,24.5z M33.8,23.9l4.2-0.4c0-2.8-0.2-5.7-2-6.3V17c4,0.3,6.3,3.1,6.4,6.6v0.1
		l-0.1,0.2l-8.5,0.3V23.9z"/>
	<path d="M48.2,32.6c-0.8-0.1-1.5-0.3-2.1-0.3c-0.7,0-1.3,0.2-1.9,1H44l-0.3-7.4h0.1c0.1,0,0.2,0.3,0.3,0.8c0.8,3.4,2.3,5.2,4.1,5.7
		V32.6z M50,32.5c1.1-0.2,1.8-1.1,1.8-2.3c0-4.1-7.5-4.3-7.5-9.1c0-2.5,1.7-3.9,5.1-4.1v0.3c-0.8,0.3-1.2,1-1.2,1.9
		c0,3.8,7.8,3.7,7.8,8.9c0,2.6-2,4.4-6,4.7V32.5z M51.3,17.1c0.6,0.1,1.2,0.2,1.6,0.2c0.6,0,1.2-0.2,1.7-1h0.1l0.3,6.2h-0.1
		c-0.1,0-0.2-0.2-0.3-0.6c-0.8-3.1-2.2-4.1-3.4-4.6V17.1z"/>
	<path d="M64,29.6c0,2.8,2.5,2.2,2.5,2.6v0.1h-9.8v-0.1c0-0.4,2.7,0.3,2.7-2.8v-9.1c0-2.8-2.6-2-2.6-2.4v-0.1L64,17l0.1,0.1V29.6z
		 M64.2,11.3c0,1.5-1.1,2.8-2.7,2.8c-1.5,0-2.6-1.3-2.6-2.8c0-1.4,1.1-2.7,2.6-2.7C63.1,8.7,64.2,9.9,64.2,11.3z"/>
	<path d="M70.2,39.6c-2.6-0.2-3.5-1.7-3.5-3c0-0.9,0.7-2.1,2-2.1c1.6,0,2.3,1.3,2.3,2.8c0,0.7-0.2,1.6-0.5,2.2L70.2,39.6z
		 M72.2,39.9c0.3,0,0.7,0,1.1,0c2.7,0,5.5-0.9,5.5-3.9c0-4.7-11.4-2.6-11.4-5.8c0-0.6,0.5-1.4,1.4-2l0.1,0.1
		c-0.4,0.3-0.5,0.6-0.5,0.8c0,2.7,15.4-0.5,15.4,5.4c0,3.6-4.6,5.7-9.5,5.7c-0.8,0-1.5-0.1-2.2-0.2C72.2,40,72.2,39.9,72.2,39.9z
		 M67.6,22.8c0-3,2.3-5.5,6.3-5.8v0.2c-1.2,0.5-1.6,2.9-1.6,5.6c0,3,0.3,4.9,1.6,5.5v0.2C70.9,28.2,67.6,26.6,67.6,22.8z M75.7,28.6
		v-0.2c1.5-0.5,1.8-2.7,1.8-5.6c0-2.7-0.3-5.1-1.8-5.5V17c3.2,0.2,6.4,2.1,6.4,5.7C82.1,25.6,80,28.2,75.7,28.6z M75.8,15.4
		c0.2-2,1.6-3.5,3.6-3.5c1.1,0,2.4,0.5,2.4,2c0,1.2-1,1.9-2.2,1.9c-1.1,0-2.3-0.6-2.7-2.2c-0.5,0.4-0.8,1.1-1,1.9
		C75.9,15.4,75.8,15.4,75.8,15.4z"/>
	<path fill="#EC1C24" d="M86.8,27.8c1.4,0,2.4,1.1,2.4,2.4c0,1.4-1.1,2.4-2.4,2.4c-1.3,0-2.4-1.1-2.4-2.4
		C84.4,28.8,85.5,27.8,86.8,27.8z"/>
</g>
</svg>
