<?xml version="1.0" encoding="utf-8"?>
<!-- Generator: Adobe Illustrator 18.0.0, SVG Export Plug-In . SVG Version: 6.00 Build 0)  -->
<!DOCTYPE svg PUBLIC "-//W3C//DTD SVG 1.0//EN" "http://www.w3.org/TR/2001/REC-SVG-20010904/DTD/svg10.dtd">
<svg version="1.0" id="Layer_1" xmlns="http://www.w3.org/2000/svg" xmlns:xlink="http://www.w3.org/1999/xlink" x="0px" y="0px"
	 viewBox="0 0 228.2 228.2" enable-background="new 0 0 228.2 228.2" xml:space="preserve">
<g>
	<path fill="#FFFFFF" d="M114,223c-0.6,0-1.2-0.2-1.7-0.7L5.6,115.6c-0.9-0.9-0.9-2.4,0-3.3L112.7,5.1c0.9-0.9,2.4-0.9,3.3,0
		l106.8,106.8c0.4,0.4,0.7,1,0.7,1.7s-0.2,1.2-0.7,1.7L115.6,222.4C115.2,222.8,114.6,223,114,223z M10.5,113.9L114,217.4
		l103.8-103.8L114.4,10.1L10.5,113.9z"/>
	<g>
		<path fill="#FFFFFF" d="M100.5,80.8h6.6v4.6H95V64.3h5.5V80.8z"/>
		<path fill="#FFFFFF" d="M127.2,85.4h-5.5V64.3h5.5V85.4z"/>
		<path fill="#FFFFFF" d="M100.4,107.7v3.5h6.2v4.6h-6.2v3.6h6.5v4.6h-12v-21.1h12v4.6H100.4z"/>
		<path fill="#FFFFFF" d="M130.8,108.5c-1-0.8-2.3-1.4-3.6-1.4c-1,0-2.3,0.6-2.3,1.8c0,1.2,1.5,1.7,2.4,2l1.4,0.4
			c2.9,0.9,5.2,2.3,5.2,5.8c0,2.1-0.5,4.3-2.2,5.7c-1.7,1.4-3.9,2-6,2c-2.7,0-5.3-0.9-7.4-2.4l2.3-4.4c1.4,1.2,3,2.2,4.9,2.2
			c1.3,0,2.7-0.6,2.7-2.1c0-1.5-2.2-2.1-3.3-2.4c-3.4-1-5.7-1.9-5.7-6c0-4.3,3-7.1,7.3-7.1c2.1,0,4.7,0.7,6.6,1.7L130.8,108.5z"/>
		<path fill="#FFFFFF" d="M99.8,162.9h-5.5v-21.1h5.5V162.9z"/>
		<path fill="#FFFFFF" d="M136.2,151.1c-0.1,3.1-0.3,5.7-2.2,8.3c-2.1,2.9-5.2,4.1-8.7,4.1c-6.6,0-11.2-4.5-11.2-11.1
			c0-6.9,4.6-11.4,11.4-11.4c4.3,0,7.7,2,9.5,5.9l-5.2,2.2c-0.8-2-2.3-3.4-4.6-3.4c-3.6,0-5.5,3.4-5.5,6.7c0,3.3,2,6.6,5.6,6.6
			c2.4,0,4.2-1.2,4.4-3.7h-4.5v-4.3H136.2z"/>
	</g>
</g>
</svg>
