<?xml version="1.0" encoding="utf-8"?>
<!-- Generator: Adobe Illustrator 18.0.0, SVG Export Plug-In . SVG Version: 6.00 Build 0)  -->
<!DOCTYPE svg PUBLIC "-//W3C//DTD SVG 1.1//EN" "http://www.w3.org/Graphics/SVG/1.1/DTD/svg11.dtd">
<svg version="1.1" id="Layer_1" xmlns="http://www.w3.org/2000/svg" xmlns:xlink="http://www.w3.org/1999/xlink" x="0px" y="0px"
	 viewBox="0 0 77.3 22" enable-background="new 0 0 77.3 22" xml:space="preserve">
<g>
	<path fill="#FFFFFF" d="M0,0v22h22V0H0z M13.4,11h-1.5c0,2.5,0,5.5,0,5.5H9.5c0,0,0-3,0-5.5H8.5V9.1h1.1V7.8c0-0.9,0.4-2.3,2.3-2.3
		l1.7,0v1.9c0,0-1,0-1.2,0c-0.2,0-0.5,0.1-0.5,0.5v1.1h1.7L13.4,11z"/>
</g>
<g>
	<path fill="#FFFFFF" d="M27.6,0v22h22V0H27.6z M43,8.8c0,0.1,0,0.2,0,0.3c0,3-2.3,6.4-6.4,6.4c-1.3,0-2.5-0.4-3.5-1
		c0.2,0,0.4,0,0.5,0c1.1,0,2-0.4,2.8-1c-1,0-1.8-0.7-2.1-1.6c0.1,0,0.3,0,0.4,0c0.2,0,0.4,0,0.6-0.1c-1-0.2-1.8-1.1-1.8-2.2
		c0,0,0,0,0,0c0.3,0.2,0.7,0.3,1,0.3c-0.6-0.4-1-1.1-1-1.9c0-0.4,0.1-0.8,0.3-1.1c1.1,1.4,2.8,2.3,4.7,2.4c0-0.2-0.1-0.3-0.1-0.5
		c0-1.2,1-2.3,2.3-2.3c0.6,0,1.2,0.3,1.6,0.7c0.5-0.1,1-0.3,1.4-0.5c-0.2,0.5-0.5,1-1,1.3c0.5-0.1,0.9-0.2,1.3-0.4
		C43.9,8.1,43.5,8.5,43,8.8z"/>
</g>
<g>
	<path fill="#FFFFFF" d="M55.3,0v22h22V0H55.3z M63.3,16.3h-2.4V9.2h2.4V16.3z M62.1,8.2L62.1,8.2c-0.8,0-1.3-0.5-1.3-1.2
		c0-0.7,0.5-1.2,1.3-1.2c0.8,0,1.3,0.5,1.3,1.2C63.4,7.7,62.9,8.2,62.1,8.2z M71.8,16.3h-2.4v-3.8c0-1-0.3-1.6-1.2-1.6
		c-0.7,0-1,0.4-1.2,0.9C67,11.9,67,12.1,67,12.3v4h-2.4c0,0,0-6.4,0-7.1H67v1C67.3,9.7,67.8,9,69.1,9c1.6,0,2.7,1,2.7,3.2V16.3z"/>
</g>
</svg>
