<?xml version="1.0" encoding="utf-8"?>
<!-- Generator: Adobe Illustrator 18.0.0, SVG Export Plug-In . SVG Version: 6.00 Build 0)  -->
<!DOCTYPE svg PUBLIC "-//W3C//DTD SVG 1.1//EN" "http://www.w3.org/Graphics/SVG/1.1/DTD/svg11.dtd">
<svg version="1.1" id="Layer_1" xmlns="http://www.w3.org/2000/svg" xmlns:xlink="http://www.w3.org/1999/xlink" x="0px" y="0px"
	 viewBox="0 0 40.5 11.6" enable-background="new 0 0 40.5 11.6" xml:space="preserve">
<g>
	<path fill="#FFFFFF" d="M0,0v11.5h11.5V0H0z M7,5.8H6.2c0,1.3,0,2.9,0,2.9H5c0,0,0-1.6,0-2.9H4.4v-1H5V4.1c0-0.5,0.2-1.2,1.2-1.2
		l0.9,0v1c0,0-0.5,0-0.6,0c-0.1,0-0.3,0.1-0.3,0.3v0.6h0.9L7,5.8z"/>
</g>
<g>
	<path fill="#FFFFFF" d="M14.5,0v11.5H26V0H14.5z M22.6,4.6c0,0.1,0,0.1,0,0.2c0,1.6-1.2,3.4-3.4,3.4c-0.7,0-1.3-0.2-1.8-0.5
		c0.1,0,0.2,0,0.3,0c0.6,0,1.1-0.2,1.5-0.5c-0.5,0-1-0.4-1.1-0.8c0.1,0,0.1,0,0.2,0c0.1,0,0.2,0,0.3,0c-0.5-0.1-1-0.6-1-1.2
		c0,0,0,0,0,0c0.2,0.1,0.3,0.1,0.5,0.1c-0.3-0.2-0.5-0.6-0.5-1c0-0.2,0.1-0.4,0.2-0.6c0.6,0.7,1.5,1.2,2.4,1.2c0-0.1,0-0.2,0-0.3
		c0-0.7,0.5-1.2,1.2-1.2c0.3,0,0.6,0.1,0.9,0.4c0.3-0.1,0.5-0.2,0.8-0.3c-0.1,0.3-0.3,0.5-0.5,0.7c0.2,0,0.5-0.1,0.7-0.2
		C23,4.2,22.8,4.4,22.6,4.6z"/>
</g>
<g>
	<path fill="#FFFFFF" d="M29,0v11.5h11.5V0H29z M33.2,8.5h-1.2V4.8h1.2V8.5z M32.5,4.3L32.5,4.3c-0.4,0-0.7-0.3-0.7-0.6
		c0-0.4,0.3-0.6,0.7-0.6c0.4,0,0.7,0.3,0.7,0.6C33.2,4,33,4.3,32.5,4.3z M37.6,8.5h-1.2v-2c0-0.5-0.2-0.8-0.6-0.8
		c-0.3,0-0.5,0.2-0.6,0.5c0,0.1,0,0.2,0,0.3v2.1h-1.2c0,0,0-3.4,0-3.7h1.2v0.5c0.2-0.3,0.5-0.6,1.1-0.6c0.8,0,1.4,0.5,1.4,1.7V8.5z"
		/>
</g>
</svg>
